<mxfile host="app.diagrams.net" modified="2023-02-16T08:58:33.601Z" agent="5.0 (Windows NT 10.0; Win64; x64) AppleWebKit/537.36 (KHTML, like Gecko) Chrome/110.0.0.0 Safari/537.36 Edg/110.0.1587.41" etag="WchnRhmEvDG_-AMXKdAl" version="20.8.20" type="github">
  <diagram id="C5RBs43oDa-KdzZeNtuy" name="Page-1">
    <mxGraphModel dx="1434" dy="796" grid="1" gridSize="10" guides="1" tooltips="1" connect="1" arrows="1" fold="1" page="1" pageScale="1" pageWidth="827" pageHeight="1169" math="0" shadow="0">
      <root>
        <mxCell id="WIyWlLk6GJQsqaUBKTNV-0" />
        <mxCell id="WIyWlLk6GJQsqaUBKTNV-1" parent="WIyWlLk6GJQsqaUBKTNV-0" />
        <mxCell id="T7GCM8Ce0Jg2UPCIWSDv-0" value="START" style="ellipse;whiteSpace=wrap;html=1;" vertex="1" parent="WIyWlLk6GJQsqaUBKTNV-1">
          <mxGeometry x="354" y="90" width="120" height="80" as="geometry" />
        </mxCell>
        <mxCell id="T7GCM8Ce0Jg2UPCIWSDv-1" value="pobierz wartość a&lt;br&gt;wstaw b=2" style="rounded=0;whiteSpace=wrap;html=1;" vertex="1" parent="WIyWlLk6GJQsqaUBKTNV-1">
          <mxGeometry x="354" y="220" width="120" height="60" as="geometry" />
        </mxCell>
        <mxCell id="T7GCM8Ce0Jg2UPCIWSDv-2" value="" style="endArrow=classic;html=1;rounded=0;exitX=0.5;exitY=1;exitDx=0;exitDy=0;entryX=0.5;entryY=0;entryDx=0;entryDy=0;" edge="1" parent="WIyWlLk6GJQsqaUBKTNV-1" source="T7GCM8Ce0Jg2UPCIWSDv-0" target="T7GCM8Ce0Jg2UPCIWSDv-1">
          <mxGeometry width="50" height="50" relative="1" as="geometry">
            <mxPoint x="394" y="380" as="sourcePoint" />
            <mxPoint x="444" y="330" as="targetPoint" />
          </mxGeometry>
        </mxCell>
        <mxCell id="T7GCM8Ce0Jg2UPCIWSDv-3" value="wyświetl a + b" style="rounded=0;whiteSpace=wrap;html=1;" vertex="1" parent="WIyWlLk6GJQsqaUBKTNV-1">
          <mxGeometry x="354" y="330" width="120" height="60" as="geometry" />
        </mxCell>
        <mxCell id="T7GCM8Ce0Jg2UPCIWSDv-4" value="" style="endArrow=classic;html=1;rounded=0;exitX=0.5;exitY=1;exitDx=0;exitDy=0;entryX=0.5;entryY=0;entryDx=0;entryDy=0;" edge="1" parent="WIyWlLk6GJQsqaUBKTNV-1" source="T7GCM8Ce0Jg2UPCIWSDv-1" target="T7GCM8Ce0Jg2UPCIWSDv-3">
          <mxGeometry width="50" height="50" relative="1" as="geometry">
            <mxPoint x="584" y="320" as="sourcePoint" />
            <mxPoint x="634" y="270" as="targetPoint" />
          </mxGeometry>
        </mxCell>
        <mxCell id="T7GCM8Ce0Jg2UPCIWSDv-5" value="KONIEC" style="ellipse;whiteSpace=wrap;html=1;" vertex="1" parent="WIyWlLk6GJQsqaUBKTNV-1">
          <mxGeometry x="354" y="430" width="120" height="80" as="geometry" />
        </mxCell>
        <mxCell id="T7GCM8Ce0Jg2UPCIWSDv-6" value="" style="endArrow=classic;html=1;rounded=0;exitX=0.5;exitY=1;exitDx=0;exitDy=0;entryX=0.5;entryY=0;entryDx=0;entryDy=0;" edge="1" parent="WIyWlLk6GJQsqaUBKTNV-1" source="T7GCM8Ce0Jg2UPCIWSDv-3" target="T7GCM8Ce0Jg2UPCIWSDv-5">
          <mxGeometry width="50" height="50" relative="1" as="geometry">
            <mxPoint x="554" y="410" as="sourcePoint" />
            <mxPoint x="604" y="360" as="targetPoint" />
          </mxGeometry>
        </mxCell>
      </root>
    </mxGraphModel>
  </diagram>
</mxfile>
